<svg width="16" height="16" viewBox="0 0 16 16" fill="none" xmlns="http://www.w3.org/2000/svg">
<path d="M11.1955 9.06673C11.3232 8.72564 11.3879 8.36424 11.3866 8.00006C11.3866 7.19145 11.0654 6.41595 10.4936 5.84417C9.92187 5.27239 9.14637 4.95117 8.33776 4.95117C7.97806 4.95159 7.62134 5.01631 7.28442 5.14228L7.99998 5.88006C8.10875 5.86266 8.21871 5.85374 8.32887 5.85339C8.90062 5.8522 9.44961 6.07728 9.85598 6.47948C10.2623 6.88168 10.4931 7.42833 10.4978 8.00006C10.4974 8.11022 10.4885 8.22017 10.4711 8.32895L11.1955 9.06673Z" fill="#C7D2D6"/>
<path d="M15.24 7.79113C13.7422 5.02224 11.1156 3.34668 8.20889 3.34668C7.41749 3.34854 6.63141 3.47605 5.88 3.72446L6.59556 4.44446C7.12261 4.30825 7.66454 4.23808 8.20889 4.23557C10.7111 4.23557 12.9867 5.63112 14.3422 7.98224C13.845 8.85451 13.1858 9.62383 12.4 10.2489L13.0311 10.88C13.9405 10.1464 14.6957 9.2401 15.2533 8.21335L15.3689 8.00001L15.24 7.79113Z" fill="#C7D2D6"/>
<path d="M2.16441 2.56896L4.14663 4.55118C2.8937 5.3579 1.8697 6.47375 1.17329 7.79118L1.05774 8.00007L1.17329 8.2134C2.67107 10.9823 5.29774 12.6578 8.2044 12.6578C9.33892 12.6576 10.4587 12.4008 11.48 11.9067L13.7022 14.129L14.48 13.4623L2.92441 1.90674L2.16441 2.56896ZM6.49774 6.90229L9.45329 9.85785C9.11935 10.0646 8.73492 10.1753 8.34218 10.1778C8.05682 10.1779 7.77427 10.1214 7.51079 10.0118C7.24732 9.90222 7.00812 9.74159 6.80696 9.53919C6.60579 9.33679 6.44664 9.09661 6.33865 8.83246C6.23067 8.56832 6.17598 8.28543 6.17774 8.00007C6.18275 7.61188 6.29337 7.23237 6.49774 6.90229ZM5.85329 6.25785C5.43749 6.84425 5.24259 7.55887 5.30312 8.27518C5.36365 8.99148 5.6757 9.66327 6.18401 10.1716C6.69232 10.6799 7.3641 10.9919 8.08041 11.0525C8.79672 11.113 9.51134 10.9181 10.0977 10.5023L10.8088 11.2134C9.98564 11.5653 9.09967 11.7467 8.2044 11.7467C5.70218 11.7467 3.42663 10.3512 2.07107 8.00007C2.72161 6.84817 3.6585 5.88372 4.79107 5.20007L5.85329 6.25785Z" fill="#C7D2D6"/>
</svg>
